<svg width="113" height="88" viewBox="0 0 113 88" fill="none" xmlns="http://www.w3.org/2000/svg">
<g opacity="0.9" clip-path="url(#clip0_1_6)">
<path fill-rule="evenodd" clip-rule="evenodd" d="M23.5417 80.6667C15.7406 80.6667 9.41667 75.7418 9.41667 69.6667L9.41667 47.6667C9.41667 41.5916 15.7407 36.6667 23.5417 36.6667H32.9583C34.6092 36.6667 36.194 36.8872 37.6667 37.2926V18.3334C37.6667 12.2582 43.9906 7.33335 51.7917 7.33335H61.2083C69.0094 7.33335 75.3333 12.2582 75.3333 18.3334V22.6259C76.806 22.2206 78.3908 22 80.0417 22H89.4583C97.2594 22 103.583 26.9249 103.583 33V69.6667C103.583 75.7418 97.2594 80.6667 89.4583 80.6667L23.5417 80.6667ZM47.0833 47.6623C47.0833 47.6637 47.0833 47.6652 47.0833 47.6667L47.0833 73.3334L65.9167 73.3334V18.3334C65.9167 16.3083 63.8087 14.6667 61.2083 14.6667H51.7917C49.1913 14.6667 47.0833 16.3083 47.0833 18.3334L47.0833 47.6623ZM75.3333 73.3334L89.4583 73.3334C92.0587 73.3334 94.1667 71.6917 94.1667 69.6667V33C94.1667 30.975 92.0587 29.3334 89.4583 29.3334H80.0417C77.4413 29.3334 75.3333 30.975 75.3333 33V73.3334ZM37.6667 73.3334L37.6667 47.6667C37.6667 47.6675 37.6667 47.6658 37.6667 47.6667C37.6649 45.6428 35.5576 44 32.9583 44H23.5417C20.9413 44 18.8333 45.6416 18.8333 47.6667L18.8333 69.6667C18.8333 71.6917 20.9413 73.3334 23.5417 73.3334H37.6667Z" fill="white"/>
</g>
<defs>
<clipPath id="clip0_1_6">
<rect width="88" height="113" fill="white" transform="matrix(0 -1 1 0 0 88)"/>
</clipPath>
</defs>
</svg>
