<svg width="77" height="81" viewBox="0 0 77 81" fill="none" xmlns="http://www.w3.org/2000/svg">
<path d="M42.9083 1.70164C40.4347 -0.567213 36.5653 -0.567213 34.0917 1.70164L3.0125 30.2083C1.08955 31.9722 0 34.4262 0 36.9935V71.6624C0 76.8192 4.30924 81 9.625 81H19.25C24.5658 81 28.875 76.8192 28.875 71.6624V56.0997C28.875 54.3809 30.3114 52.9874 32.0833 52.9874H44.9167C46.6886 52.9874 48.125 54.3809 48.125 56.0997V71.6624C48.125 76.8192 52.4344 81 57.75 81H67.375C72.6906 81 77 76.8192 77 71.6624V36.9935C77 34.4262 75.9105 31.9722 73.9874 30.2083L42.9083 1.70164Z" fill="#EEE4E4"/>
</svg>
