<svg width="119" height="119" viewBox="0 0 119 119" fill="none" xmlns="http://www.w3.org/2000/svg">
<path d="M96.2084 27.9306L93.1615 77.2207C92.3827 89.8137 91.9938 96.1105 88.8373 100.638C87.2763 102.876 85.2673 104.765 82.9368 106.184C78.2237 109.056 71.9151 109.056 59.2975 109.056C46.6637 109.056 40.3467 109.056 35.6304 106.179C33.2986 104.757 31.2887 102.865 29.7286 100.623C26.573 96.0884 26.1923 89.7828 25.431 77.172L22.4584 27.9306" stroke="#163300" stroke-width="8.5" stroke-linecap="round"/>
<path d="M15.0834 27.9306H103.583M79.2739 27.9306L75.9178 21.0066C73.6881 16.4072 72.573 14.1075 70.6501 12.6732C70.2238 12.3551 69.7719 12.0721 69.2995 11.827C67.17 10.7222 64.6144 10.7222 59.503 10.7222C54.2633 10.7222 51.6437 10.7222 49.4788 11.8733C48.999 12.1284 48.5412 12.4229 48.11 12.7536C46.1648 14.246 45.0781 16.6298 42.9049 21.3976L39.9269 27.9306" stroke="#163300" stroke-width="8.5" stroke-linecap="round"/>
<path d="M47.0417 82.0139V52.5139" stroke="#163300" stroke-width="8.5" stroke-linecap="round"/>
<path d="M71.6251 82.0139V52.5139" stroke="#163300" stroke-width="8.5" stroke-linecap="round"/>
</svg>
