<svg width="24" height="24" viewBox="0 0 24 24" fill="none" xmlns="http://www.w3.org/2000/svg">
<path fill-rule="evenodd" clip-rule="evenodd" d="M15.096 5.7219C13.8543 5.10956 12.4589 4.87918 11.0863 5.05989C9.71369 5.2406 8.42548 5.82428 7.38458 6.73713C6.45105 7.55581 5.75406 8.60626 5.36171 9.77894L6.92919 8.87396C7.40748 8.59782 8.01907 8.76169 8.29522 9.23998C8.57136 9.71828 8.40748 10.3299 7.92919 10.606L4.25496 12.7273C3.77666 13.0035 3.16507 12.8396 2.88893 12.3613L0.76761 8.68707C0.491468 8.20878 0.655343 7.59719 1.13364 7.32104C1.61193 7.0449 2.22352 7.20878 2.49966 7.68707L3.42032 9.2817C3.91552 7.71866 4.82931 6.3179 6.06589 5.23345C7.40419 4.05979 9.06046 3.30934 10.8253 3.077C12.5901 2.84466 14.3841 3.14086 15.9806 3.92815C17.5771 4.71544 18.9042 5.95845 19.7942 7.50001C20.0704 7.9783 19.9065 8.58989 19.4282 8.86603C18.9499 9.14217 18.3383 8.9783 18.0622 8.50001C17.3699 7.30102 16.3377 6.33423 15.096 5.7219ZM19.745 11.2727C20.2233 10.9965 20.8349 11.1604 21.1111 11.6387L23.2324 15.3129C23.5085 15.7912 23.3447 16.4028 22.8664 16.679C22.3881 16.9551 21.7765 16.7912 21.5003 16.3129L20.5797 14.7183C20.0845 16.2813 19.1707 17.6821 17.9341 18.7666C16.5958 19.9402 14.9395 20.6907 13.1747 20.923C11.4099 21.1553 9.61586 20.8591 8.0194 20.0719C6.42294 19.2846 5.09579 18.0416 4.20577 16.5C3.92963 16.0217 4.0935 15.4101 4.5718 15.134C5.05009 14.8578 5.66168 15.0217 5.93782 15.5C6.63006 16.699 7.66229 17.6658 8.90398 18.2781C10.1457 18.8905 11.5411 19.1208 12.9137 18.9401C14.2863 18.7594 15.5745 18.1757 16.6154 17.2629C17.5489 16.4442 18.2459 15.3937 18.6383 14.2211L17.0708 15.1261C16.5925 15.4022 15.9809 15.2383 15.7048 14.76C15.4286 14.2817 15.5925 13.6701 16.0708 13.394L19.745 11.2727Z" fill="#183708"/>
</svg>
